nColumns=19
nRows=39
DataType=double
version=3
OpenSimVersion=4.1
endheader
time	ground_force_calcn_l_vx	ground_force_calcn_l_vy	ground_force_calcn_l_vz	ground_force_calcn_l_px	ground_force_calcn_l_py	ground_force_calcn_l_pz	ground_force_calcn_l_mx	ground_force_calcn_l_my	ground_force_calcn_l_mz	ground_force_calcn_r_vx	ground_force_calcn_r_vy	ground_force_calcn_r_vz	ground_force_calcn_r_px	ground_force_calcn_r_py	ground_force_calcn_r_pz	ground_force_calcn_r_mx	ground_force_calcn_r_my	ground_force_calcn_r_mz
0	0	0	0	0	0.024932	0	0	0	0	0	0	0	0	0.0313206	0	0	0	0
0.00997519	3.70399	362.142	-28.6686	-0.275821	-3.04513e-17	0.197147	-0.072062	-7.04556	0.557756	-6.3156	348.022	30.8924	-0.221605	-2.44996e-17	-0.15458	-0.0663478	3.6561	0.324536
0.0199504	4.0242	359.482	-28.7344	-0.275934	-3.04643e-17	0.19712	-0.0773248	-6.90743	0.55213	-6.84163	350.968	31.4091	-0.222019	-2.45503e-17	-0.154871	-0.067966	3.48658	0.312024
0.0299256	4.33182	356.944	-28.7752	-0.276096	-3.04826e-17	0.197136	-0.0823729	-6.78755	0.547182	-7.42518	353.855	31.9028	-0.22232	-2.4588e-17	-0.155191	-0.070138	3.3425	0.301353
0.0399007	4.57659	354.595	-28.7898	-0.27623	-3.04978e-17	0.19717	-0.086277	-6.68476	0.542741	-8.09729	356.597	32.361	-0.222525	-2.46147e-17	-0.15552	-0.0728311	3.20741	0.291071
0.0498759	4.75268	352.487	-28.7805	-0.276294	-3.05051e-17	0.197225	-0.0889765	-6.59904	0.53881	-8.8408	359.109	32.7663	-0.222622	-2.46296e-17	-0.155832	-0.0754712	3.06561	0.279716
0.0598511	4.80241	350.659	-28.7449	-0.276317	-3.05079e-17	0.197277	-0.0893721	-6.52572	0.534938	-9.67957	361.353	33.111	-0.222582	-2.46293e-17	-0.156137	-0.078286	2.92254	0.267793
0.0698263	4.69102	349.119	-28.6775	-0.276268	-3.0503e-17	0.197298	-0.0868844	-6.46618	0.531147	-10.6346	363.286	33.388	-0.222439	-2.46177e-17	-0.156446	-0.0812643	2.77606	0.255135
0.0798015	4.41755	347.881	-28.5854	-0.276083	-3.0483e-17	0.197274	-0.0815267	-6.42022	0.527549	-11.6393	364.83	33.5925	-0.222228	-2.45991e-17	-0.156716	-0.0832705	2.6101	0.24033
0.0897767	3.97289	346.929	-28.4779	-0.275747	-3.04465e-17	0.197186	-0.0730627	-6.38015	0.523718	-12.6843	365.911	33.7127	-0.221985	-2.45779e-17	-0.156923	-0.0835135	2.40917	0.221965
0.0997519	3.32734	346.225	-28.3453	-0.275257	-3.03932e-17	0.197008	-0.0609612	-6.34329	0.519321	-13.7694	366.451	33.725	-0.221771	-2.45601e-17	-0.157083	-0.0827818	2.20311	0.202756
0.109727	2.49946	345.713	-28.1939	-0.274614	-3.03232e-17	0.196714	-0.0455464	-6.29976	0.513763	-14.8493	366.365	33.6172	-0.221615	-2.45489e-17	-0.157192	-0.0805846	1.98819	0.182434
0.119702	1.49493	345.314	-28.0362	-0.273809	-3.02359e-17	0.196286	-0.0270246	-6.24244	0.506827	-15.8734	365.554	33.3836	-0.221515	-2.45441e-17	-0.157237	-0.0767277	1.76699	0.161367
0.129677	0.306441	344.927	-27.868	-0.272837	-3.01301e-17	0.195733	-0.0054986	-6.18917	0.500047	-16.844	363.929	33.0046	-0.221472	-2.45452e-17	-0.157244	-0.0721139	1.55809	0.141302
0.139653	-1.03334	344.443	-27.6868	-0.271727	-3.0009e-17	0.195061	0.018375	-6.12494	0.492331	-17.7215	361.412	32.4735	-0.221465	-2.45498e-17	-0.157222	-0.0671147	1.36874	0.122984
0.149628	-2.47346	343.754	-27.4838	-0.270533	-2.98795e-17	0.194277	0.0433829	-6.02923	0.482049	-18.4256	357.924	31.7898	-0.221454	-2.45534e-17	-0.157146	-0.0615507	1.19565	0.106194
0.159603	-3.99852	342.766	-27.2438	-0.269242	-2.97395e-17	0.193415	0.0690533	-5.91947	0.470491	-18.9129	353.381	30.9543	-0.221476	-2.456e-17	-0.156991	-0.0560034	1.0464	0.091659
0.169578	-5.58094	341.401	-26.9683	-0.267844	-2.95877e-17	0.192494	0.0948193	-5.80034	0.458187	-19.1378	347.752	29.9789	-0.221561	-2.45727e-17	-0.156764	-0.050875	0.924447	0.0796944
0.179553	-7.12219	339.619	-26.6744	-0.266363	-2.94268e-17	0.191536	0.118823	-5.66603	0.445023	-19.0098	341.09	28.8882	-0.221661	-2.45863e-17	-0.156456	-0.0464036	0.832611	0.070517
0.189529	-8.57124	337.396	-26.3884	-0.264828	-2.92598e-17	0.190557	0.140245	-5.52058	0.431775	-18.4787	333.496	27.7211	-0.221808	-2.46039e-17	-0.156076	-0.0436006	0.786887	0.0654081
0.199504	-9.85249	334.74	-26.1319	-0.263236	-2.90856e-17	0.189621	0.158548	-5.38669	0.420519	-17.5355	325.158	26.5428	-0.222047	-2.46298e-17	-0.155646	-0.0431633	0.800371	0.0653347
0.209479	-10.8463	331.685	-25.925	-0.261642	-2.89102e-17	0.188816	0.172281	-5.26845	0.411789	-16.1444	316.355	25.4363	-0.222348	-2.46608e-17	-0.15518	-0.0448415	0.878683	0.0706498
0.219454	-11.4514	328.255	-25.8182	-0.260101	-2.87394e-17	0.188199	0.180428	-5.17196	0.40679	-14.3381	307.463	24.4801	-0.222723	-2.46981e-17	-0.154704	-0.047244	1.01309	0.0806618
0.229429	-11.6363	324.46	-25.8535	-0.258687	-2.85806e-17	0.187813	0.183475	-5.11589	0.407643	-12.2231	298.9	23.7279	-0.223192	-2.47436e-17	-0.154248	-0.049586	1.21256	0.096258
0.239404	-11.3647	320.352	-26.0621	-0.257475	-2.84417e-17	0.187701	0.180907	-5.09947	0.414865	-9.92249	291.097	23.2296	-0.223684	-2.47896e-17	-0.153826	-0.0497209	1.45867	0.116402
0.24938	-10.6465	315.994	-26.4439	-0.256467	-2.83231e-17	0.187873	0.172421	-5.11757	0.428263	-7.5853	284.469	23.0182	-0.224128	-2.4829e-17	-0.153471	-0.0457769	1.71676	0.138914
0.259355	-9.5687	311.43	-26.9856	-0.255657	-2.82233e-17	0.188311	0.159465	-5.19006	0.449722	-5.40545	279.341	23.0958	-0.224466	-2.48558e-17	-0.15324	-0.0382118	1.97469	0.163267
0.26933	-8.24052	306.713	-27.679	-0.255038	-2.81415e-17	0.188942	0.142595	-5.3074	0.478961	-3.57468	275.878	23.4372	-0.224675	-2.48681e-17	-0.153162	-0.0287197	2.21646	0.1883
0.279305	-6.76345	301.932	-28.502	-0.25454	-2.80704e-17	0.189703	0.12211	-5.45122	0.514588	-2.20978	274.108	24.0105	-0.224697	-2.48604e-17	-0.153241	-0.0195206	2.4214	0.212103
0.28928	-5.26413	297.164	-29.3998	-0.254085	-2.80013e-17	0.190551	0.0995936	-5.62213	0.556224	-1.39686	273.926	24.7644	-0.224507	-2.48305e-17	-0.153511	-0.0131855	2.58569	0.23376
0.299256	-3.84308	292.445	-30.3161	-0.25367	-2.79339e-17	0.191443	0.076519	-5.82283	0.603619	-1.14043	275.092	25.6685	-0.224065	-2.47739e-17	-0.153958	-0.0112649	2.71727	0.253546
0.309231	-2.51715	287.812	-31.1902	-0.25331	-2.78702e-17	0.192365	0.0528983	-6.0484	0.655466	-1.3439	277.303	26.6923	-0.223377	-2.46911e-17	-0.154545	-0.0136749	2.82171	0.271608
0.319206	-1.2955	283.353	-31.9971	-0.25299	-2.78091e-17	0.193297	0.0287651	-6.29152	0.710459	-1.91084	280.252	27.8065	-0.222494	-2.45874e-17	-0.155261	-0.0198377	2.90947	0.288677
0.329181	-0.191771	279.203	-32.7252	-0.252686	-2.77483e-17	0.194229	0.00450189	-6.55438	0.768235	-2.77037	283.648	29.0056	-0.221439	-2.44646e-17	-0.156098	-0.0292804	2.99792	0.306564
0.339156	0.799008	275.502	-33.3725	-0.252354	-2.76834e-17	0.195138	-0.019811	-6.83094	0.827456	-3.80793	287.259	30.2955	-0.220183	-2.43193e-17	-0.157015	-0.0409544	3.08947	0.325829
0.349132	1.68739	272.377	-33.9525	-0.251973	-2.76134e-17	0.195987	-0.044046	-7.10984	0.886263	-4.95352	290.923	31.6739	-0.218757	-2.41551e-17	-0.157983	-0.0539904	3.17088	0.345227
0.359107	2.43483	269.933	-34.462	-0.251591	-2.7544e-17	0.196756	-0.0666861	-7.39302	0.943858	-6.19992	294.503	33.1092	-0.217232	-2.39794e-17	-0.159003	-0.0686751	3.26214	0.366743
0.369082	3.01019	268.21	-34.898	-0.251207	-2.74762e-17	0.197425	-0.0861311	-7.67434	0.998542	-7.52346	297.936	34.5761	-0.215643	-2.37957e-17	-0.160054	-0.0849813	3.36534	0.390555
0.379057	3.43364	267.206	-35.2657	-0.250766	-2.74045e-17	0.197964	-0.102183	-7.9519	1.04949	-8.8707	301.266	36.073	-0.213971	-2.36032e-17	-0.161092	-0.101683	3.45337	0.413499
